<svg width="101" height="36" viewBox="0 0 101 36" fill="none" xmlns="http://www.w3.org/2000/svg">
<path d="M11.9836 35.2954C9.03442 35.1794 6.62153 34.3804 4.73485 32.8964C4.37479 32.6129 3.51679 31.7629 3.22894 31.4044C2.46386 30.4519 1.94372 29.5249 1.59678 28.4964C0.52921 25.3304 1.07865 21.1759 3.16834 16.6164C4.95755 12.7129 7.71839 8.84145 12.5351 3.47945C13.2446 2.69045 15.3575 0.382935 15.3712 0.382935C15.3762 0.382935 15.2611 0.580438 15.1161 0.820938C13.8637 2.89794 12.7921 5.34443 12.2083 7.46243C11.2706 10.8609 11.3837 13.7774 12.5396 16.0389C13.337 17.5969 14.7041 18.9464 16.2413 19.6924C18.9324 20.9979 22.8724 21.1059 27.6841 20.0084C28.0154 19.9324 44.4309 15.6179 64.1632 10.4204C83.8956 5.22244 100.043 0.97294 100.046 0.97644C100.051 0.98094 54.2016 20.4059 30.4005 30.4834C26.6311 32.0789 25.6232 32.4819 23.8511 33.0979C19.3213 34.6729 15.2636 35.4244 11.9836 35.2954Z" fill="#131212"/>
</svg>
